<?xml version="1.0" encoding="utf-8"?>
<!-- Generator: Adobe Illustrator 17.1.0, SVG Export Plug-In . SVG Version: 6.00 Build 0)  -->
<!DOCTYPE svg PUBLIC "-//W3C//DTD SVG 1.1//EN" "http://www.w3.org/Graphics/SVG/1.1/DTD/svg11.dtd">
<svg version="1.1" id="Layer_1" xmlns="http://www.w3.org/2000/svg" xmlns:xlink="http://www.w3.org/1999/xlink" x="0px" y="0px"
	 viewBox="0 0 60 60" enable-background="new 0 0 60 60" xml:space="preserve">
<g>
	<path fill="#2A2C32" d="M29.999,60C13.458,60,0,46.542,0,30S13.458,0,29.999,0C46.542,0,60,13.458,60,30S46.542,60,29.999,60z
		 M29.999,1.463C14.265,1.463,1.463,14.265,1.463,30s12.801,28.537,28.536,28.537c15.736,0,28.537-12.801,28.537-28.537
		S45.735,1.463,29.999,1.463z"/>
	<path fill="#2A2C32" d="M23.645,25.54h2.723v-2.646c0-1.168,0.029-2.968,0.877-4.082c0.893-1.18,2.119-1.983,4.228-1.983
		c3.436,0,4.882,0.49,4.882,0.49l-0.681,4.035c0,0-1.134-0.329-2.193-0.329c-1.059,0-2.008,0.38-2.008,1.438v3.077h4.343
		l-0.303,3.941h-4.04v13.69h-5.104V29.48h-2.723V25.54z"/>
</g>
</svg>
