<?xml version="1.0" encoding="utf-8"?>
<!-- Generator: Adobe Illustrator 17.1.0, SVG Export Plug-In . SVG Version: 6.00 Build 0)  -->
<!DOCTYPE svg PUBLIC "-//W3C//DTD SVG 1.1//EN" "http://www.w3.org/Graphics/SVG/1.1/DTD/svg11.dtd">
<svg version="1.1" id="Layer_1" xmlns="http://www.w3.org/2000/svg" xmlns:xlink="http://www.w3.org/1999/xlink" x="0px" y="0px"
	 viewBox="0 0 60 60" enable-background="new 0 0 60 60" xml:space="preserve">
<g>
	<path fill="#2A2C32" d="M30.001,60C13.458,60,0,46.542,0,30S13.458,0,30.001,0C46.542,0,60,13.458,60,30S46.542,60,30.001,60z
		 M30.001,1.463C14.265,1.463,1.463,14.265,1.463,30s12.802,28.537,28.537,28.537c15.735,0,28.536-12.801,28.536-28.537
		S45.736,1.463,30.001,1.463z"/>
	<path fill="#2A2C32" d="M25.645,41.789c-3.131,0-5.391-1.981-5.391-4.362c0-2.335,2.804-4.277,5.934-4.242
		c0.73,0.007,1.412,0.124,2.029,0.324c1.698,1.185,2.917,1.851,3.261,3.198c0.065,0.274,0.101,0.554,0.101,0.842
		C31.578,39.93,30.045,41.789,25.645,41.789 M26.467,27.826c-2.1-0.062-4.098-2.35-4.46-5.109c-0.362-2.761,1.047-4.873,3.148-4.811
		c2.1,0.064,4.097,2.277,4.46,5.038C29.976,25.703,28.567,27.89,26.467,27.826 M30.822,31.915c-0.737-0.522-2.145-1.791-2.145-2.537
		c0-0.877,0.249-1.306,1.565-2.334c1.348-1.055,2.304-2.536,2.304-4.259c0-2.053-0.915-4.052-2.629-4.713h2.585l1.825-1.319h-8.155
		c-3.655,0-7.096,2.771-7.096,5.98c0,3.279,2.492,5.927,6.211,5.927c0.259,0,0.509-0.006,0.756-0.021
		c-0.242,0.459-0.416,0.982-0.416,1.521c0,0.912,0.491,1.651,1.11,2.254c-0.468,0-0.921,0.014-1.413,0.014
		c-4.528,0-8.014,2.885-8.014,5.877c0,2.947,3.821,4.789,8.349,4.789c5.162,0,8.014-2.93,8.014-5.878
		C33.674,34.853,32.977,33.438,30.822,31.915 M42.687,28.069h-3.175v-3.176h-2.555v3.176h-3.174v2.556h3.174V33.8h2.555v-3.176
		h3.175V28.069z"/>
</g>
</svg>
