<?xml version="1.0" encoding="utf-8"?>
<!-- Generator: Adobe Illustrator 17.1.0, SVG Export Plug-In . SVG Version: 6.00 Build 0)  -->
<!DOCTYPE svg PUBLIC "-//W3C//DTD SVG 1.1//EN" "http://www.w3.org/Graphics/SVG/1.1/DTD/svg11.dtd">
<svg version="1.1" id="Layer_1" xmlns="http://www.w3.org/2000/svg" xmlns:xlink="http://www.w3.org/1999/xlink" x="0px" y="0px"
	 viewBox="0 0 60 60" enable-background="new 0 0 60 60" xml:space="preserve">
<g>
	<path fill="#2A2C32" d="M30,60C13.458,60,0,46.542,0,30S13.458,0,30,0c16.542,0,30,13.458,30,30S46.542,60,30,60z M30,1.463
		C14.265,1.463,1.463,14.265,1.463,30S14.265,58.537,30,58.537S58.537,45.735,58.537,30S45.735,1.463,30,1.463z"/>
	<path fill="#2A2C32" d="M22.629,40.908h-5.137V24.463h5.137V40.908z M19.929,22.406h-0.038c-1.857,0-3.062-1.259-3.062-2.852
		c0-1.621,1.24-2.854,3.137-2.854c1.892,0,3.057,1.23,3.095,2.85C23.061,21.144,21.858,22.406,19.929,22.406z M43.171,40.908h-5.824
		v-8.511c0-2.227-0.909-3.746-2.912-3.746c-1.531,0-2.382,1.025-2.78,2.016c-0.151,0.354-0.126,0.847-0.126,1.343v8.899h-5.768
		c0,0,0.076-15.074,0-16.445h5.768v2.579c0.341-1.127,2.184-2.737,5.124-2.737c3.649,0,6.517,2.364,6.517,7.459V40.908z"/>
</g>
</svg>
