<?xml version="1.0" encoding="utf-8"?>
<!-- Generator: Adobe Illustrator 17.1.0, SVG Export Plug-In . SVG Version: 6.00 Build 0)  -->
<!DOCTYPE svg PUBLIC "-//W3C//DTD SVG 1.1//EN" "http://www.w3.org/Graphics/SVG/1.1/DTD/svg11.dtd">
<svg version="1.1" id="Layer_1" xmlns="http://www.w3.org/2000/svg" xmlns:xlink="http://www.w3.org/1999/xlink" x="0px" y="0px"
	 viewBox="0 0 60 60" enable-background="new 0 0 60 60" xml:space="preserve">
<g>
	<path fill="#2A2C32" d="M30.001,60C13.458,60,0,46.542,0,30S13.458,0,30.001,0C46.542,0,60,13.458,60,30S46.542,60,30.001,60z
		 M30.001,1.463C14.265,1.463,1.463,14.265,1.463,30s12.802,28.537,28.537,28.537c15.735,0,28.536-12.801,28.536-28.537
		S45.736,1.463,30.001,1.463z"/>
	<path fill="#2A2C32" d="M43.171,23.256c-0.97,0.429-2.012,0.72-3.104,0.851c1.118-0.669,1.974-1.727,2.376-2.989
		c-1.045,0.619-2.199,1.068-3.434,1.309c-0.983-1.05-2.389-1.706-3.944-1.706c-2.983,0-5.403,2.42-5.403,5.404
		c0,0.424,0.046,0.836,0.139,1.231c-4.49-0.226-8.472-2.375-11.14-5.647c-0.465,0.801-0.73,1.729-0.73,2.719
		c0,1.873,0.954,3.528,2.403,4.498c-0.884-0.027-1.719-0.273-2.449-0.675v0.066c0,2.62,1.864,4.804,4.337,5.299
		c-0.453,0.127-0.93,0.19-1.424,0.19c-0.348,0-0.687-0.032-1.016-0.096c0.687,2.147,2.682,3.71,5.048,3.751
		c-1.85,1.451-4.182,2.314-6.712,2.314c-0.436,0-0.867-0.024-1.289-0.075c2.392,1.532,5.233,2.427,8.283,2.427
		c9.943,0,15.377-8.233,15.377-15.376c0-0.235-0.004-0.469-0.015-0.699C41.531,25.291,42.449,24.339,43.171,23.256"/>
</g>
</svg>
